<svg width="300" height="73" viewBox="0 0 300 73" fill="none" xmlns="http://www.w3.org/2000/svg">
<path d="M174.808 45.4528L163.538 56.6995C163.102 57.1344 162.853 57.7247 162.853 58.315V70.1209C162.853 71.519 164.098 72.6064 165.499 72.3889C178.388 70.4006 188.537 60.2413 190.561 47.379C190.779 46.012 189.689 44.7382 188.288 44.7382H176.458C175.804 44.8004 175.213 45.0489 174.808 45.4528Z" fill="#513DD9"/>
<path d="M158.121 56.7305L146.851 45.4839C146.415 45.0489 145.823 44.8004 145.232 44.8004H133.401C132.001 44.8004 130.911 46.0431 131.129 47.4412C133.121 60.3034 143.302 70.4316 156.191 72.4511C157.592 72.6685 158.837 71.5811 158.837 70.1831V58.3772C158.806 57.7247 158.557 57.1655 158.121 56.7305Z" fill="#513DD9"/>
<path d="M163.507 28.8313L174.777 40.078C175.213 40.513 175.804 40.7615 176.396 40.7615H188.226C189.627 40.7615 190.717 39.5188 190.499 38.1207C188.506 25.2585 178.326 15.1302 165.437 13.1108C164.036 12.8933 162.791 13.9807 162.791 15.3788V27.1847C162.853 27.8061 163.071 28.3964 163.507 28.8313Z" fill="#513DD9"/>
<path d="M146.851 40.078L158.121 28.8313C158.557 28.3964 158.806 27.8061 158.806 27.2158V15.4098C158.806 14.0118 157.56 12.9244 156.159 13.1419C143.271 15.1302 133.121 25.2895 131.098 38.1518C130.88 39.5188 131.969 40.7926 133.37 40.7926H145.201C145.823 40.7615 146.415 40.513 146.851 40.078Z" fill="#513DD9"/>
<path d="M223.157 68.9714C220.044 68.9714 217.242 68.319 214.72 67.0141C212.198 65.7093 210.175 64.0316 208.711 62.0121H208.244L206.844 68.0704H197.94V2.73401H208.711V24.2021H209.178C210.299 22.5245 212.136 21.0332 214.658 19.6973C217.18 18.3613 220.013 17.7089 223.188 17.7089C229.664 17.7089 234.863 19.9458 238.817 24.4196C242.739 28.8934 244.701 35.2313 244.701 43.3712C244.701 51.5111 242.739 57.849 238.817 62.2918C234.863 66.7345 229.664 68.9714 223.157 68.9714ZM212.261 55.115C214.627 57.8179 217.647 59.1849 221.32 59.1849C224.994 59.1849 228.014 57.8179 230.38 55.115C232.746 52.4121 233.929 48.4664 233.929 43.3091C233.929 38.1518 232.746 34.2061 230.38 31.5032C228.014 28.8002 224.994 27.4332 221.32 27.4332C217.647 27.4332 214.627 28.8002 212.261 31.5032C209.895 34.2061 208.711 38.1518 208.711 43.3091C208.711 48.4975 209.895 52.4121 212.261 55.115Z" fill="#513DD9"/>
<path d="M256.562 13.0486C254.632 13.0486 253.044 12.4273 251.737 11.1846C250.429 9.94183 249.807 8.38842 249.807 6.52432C249.807 4.66023 250.429 3.10682 251.737 1.86409C253.044 0.621364 254.632 0 256.562 0C258.586 0 260.205 0.621364 261.481 1.86409C262.758 3.10682 263.381 4.66023 263.381 6.52432C263.381 8.38842 262.758 9.94183 261.481 11.1846C260.205 12.3962 258.555 13.0486 256.562 13.0486ZM251.208 68.0704V18.6409H261.98V68.0704H251.208Z" fill="#513DD9"/>
<path d="M290.435 68.0704C286.014 68.0704 282.589 66.8588 280.13 64.4665C277.67 62.0743 276.425 58.75 276.425 54.5247V28.4274H268.486V18.6409H277.733L277.826 10.0972L287.197 5.56122V18.6409H299.339V28.4274H287.197V53.1266C287.197 54.5558 287.664 55.7674 288.598 56.7616C289.532 57.7558 290.777 58.2529 292.334 58.2529H299.37V68.0394L290.435 68.0704Z" fill="#513DD9"/>
<path d="M8.15465 68.0705V28.4274H0.21582V18.641H8.15465V14.3846C8.15465 10.1593 9.43109 6.8661 11.9528 4.44278C14.4746 2.01946 18.0548 0.838867 22.6313 0.838867H31.0683V10.6254H24.0323C22.4757 10.6254 21.2304 11.1224 20.3275 12.1166C19.4247 13.1108 18.9266 14.3225 18.9266 15.7516V18.5788H31.0683V28.3653H18.9266V68.0083L8.15465 68.0705Z" fill="#513DD9"/>
<path d="M58.9632 68.9715C51.647 68.9715 45.8875 66.7346 41.6223 62.2297C37.3571 57.7248 35.2401 51.4179 35.2401 43.3402C35.2401 35.3246 37.3571 29.0488 41.5912 24.5129C45.8252 19.9769 51.4914 17.7089 58.6208 17.7089C65.8747 17.7089 71.572 20.039 75.7437 24.6993C79.9155 29.3595 82.0014 35.1382 82.0014 41.9732L81.5344 46.6334H46.4479C46.6969 50.4237 47.9422 53.4684 50.1527 55.7675C52.3942 58.0665 55.3518 59.2161 59.0255 59.2161C63.1973 59.2161 66.6219 57.352 69.2993 53.6548H80.974C79.4797 58.2219 76.8956 61.919 73.1597 64.7462C69.4861 67.5423 64.7539 68.9715 58.9632 68.9715ZM46.4479 38.2139H70.7314C70.2332 35.045 68.9568 32.4663 66.8398 30.478C64.7228 28.4896 61.9831 27.4643 58.5896 27.4643C55.4141 27.4643 52.7989 28.4275 50.7131 30.3226C48.6583 32.2178 47.2262 34.8586 46.4479 38.2139Z" fill="#513DD9"/>
<path d="M82.9042 68.0704L99.2488 42.4081L83.807 18.6409H95.9488L106.254 34.9517L116.527 18.6409H128.669L113.227 42.4081L129.603 68.0394H117.461L106.223 49.8645L94.9837 68.0394L82.9042 68.0704Z" fill="#513DD9"/>
<path d="M169.235 43.4334L161.483 51.1694C161.11 51.5422 160.549 51.5422 160.176 51.1694L152.424 43.4334C152.05 43.0606 152.05 42.4703 152.424 42.1285L160.176 34.3925C160.549 34.0197 161.11 34.0197 161.483 34.3925L169.235 42.1285C169.609 42.4703 169.609 43.0606 169.235 43.4334Z" fill="#7AD9AC"/>
</svg>
